<svg xmlns="http://www.w3.org/2000/svg" xmlns:xlink="http://www.w3.org/1999/xlink" width="12" height="12" viewBox="0 0 12 12">
    <g fill="none" fill-rule="evenodd" transform="translate(1)">
        <path fill="#737373" d="M9.117 5.025c0 2.768-1.789 4.91-4.09 5.994C2.741 9.947.938 7.799.937 5.025V5.016C.938 2.766 2.772.938 5.027.938c2.254 0 4.088 1.828 4.09 4.076v.011zm.937-.008C10.054 2.25 7.8 0 5.027 0 2.255 0 0 2.25 0 5.017v.005c0 3.44 2.515 6.022 4.855 6.945.111.044.234.044.344 0 1.895-.748 4.855-3.106 4.855-6.945v-.005zm-5.027.937c-.519 0-.94-.421-.94-.937 0-.517.421-.938.94-.938.52 0 .941.42.941.938 0 .516-.422.937-.94.937zm0-2.812c-1.035 0-1.878.84-1.878 1.875 0 1.033.843 1.875 1.878 1.875 1.036 0 1.88-.842 1.88-1.875 0-1.034-.844-1.875-1.88-1.875z"/>
    </g>
</svg>
