<?xml version="1.0" encoding="UTF-8" standalone="no"?>
<!-- Created with Inkscape (http://www.inkscape.org/) -->

<svg
        width="62.081707mm"
        height="11.133001mm"
        viewBox="0 0 62.081707 11.133001"
        version="1.1"
        id="svg1"
        inkscape:export-filename="bitmap1.svg"
        inkscape:export-xdpi="96"
        inkscape:export-ydpi="96"
        xmlns:inkscape="http://www.inkscape.org/namespaces/inkscape"
        xmlns:sodipodi="http://sodipodi.sourceforge.net/DTD/sodipodi-0.dtd"
        xmlns="http://www.w3.org/2000/svg"
        xmlns:svg="http://www.w3.org/2000/svg">
    <sodipodi:namedview
            id="namedview1"
            pagecolor="#ffffff"
            bordercolor="#000000"
            borderopacity="0.25"
            inkscape:showpageshadow="2"
            inkscape:pageopacity="0.0"
            inkscape:pagecheckerboard="0"
            inkscape:deskcolor="#d1d1d1"
            inkscape:document-units="mm"/>
    <defs
            id="defs1"/>
    <g
            inkscape:label="Layer 1"
            inkscape:groupmode="layer"
            id="layer1"
            transform="translate(-77.255915,-70.56114)">
        <path
                d="m 106.22397,247.42601 q 0,1.152 0.352,2.08 0.352,0.896 1.536,1.056 0.384,0.032 0.384,0.416 v 1.056 q 0,0.448 -0.48,0.448 -1.568,0 -2.624,0.192 -1.024,0.16 -1.792,0.448 -0.736,0.256 -1.472,0.576 -0.128,0.064 -0.224,0.064 h -0.096 q -0.064,0 -0.064,-0.128 0,-0.128 0.064,-0.608 0.064,-0.512 0.128,-1.12 0.096,-0.64 0.16,-1.088 -0.16,0.416 -0.704,1.12 -0.512,0.704 -1.536001,1.28 -0.992,0.544 -2.624,0.544 -1.088,0 -2.336,-0.448 -1.216,-0.448 -2.304,-1.44 -1.088,-0.992 -1.792,-2.592 -0.672,-1.632 -0.672,-3.968 0,-2.976 1.056,-4.8 1.088,-1.856 2.784,-2.72 1.728,-0.864 3.648,-0.864 1.568,0 2.880001,0.48 1.312,0.48 2.304,1.376 0.832,-0.352 1.408,-0.64 0.608,-0.32 1.024,-0.64 0.16,-0.128 0.32,-0.256 0.192,-0.128 0.416,-0.256 0.096,-0.064 0.16,-0.064 h 0.032 q 0.064,0 0.064,0.064 z m -4.48,-5.024 q -0.096,-0.64 -0.48,-1.408 -0.352,-0.8 -1.088,-1.344 -0.736001,-0.576 -1.984001,-0.576 -1.536,0 -2.4,0.768 -0.864,0.736 -1.216,1.92 -0.32,1.184 -0.32,2.528 0,3.072 1.216,4.864 1.248,1.792 3.2,1.792 1.152,0 1.792001,-0.48 0.672,-0.512 0.96,-1.024 0.288,-0.512 0.32,-0.608 z m 39.80795,9.024 q 0.48,0 0.48,0.48 v 0.96 q 0,0.48 -0.48,0.48 h -9.024 q -0.48,0 -0.48,-0.48 v -0.96 q 0,-0.48 0.48,-0.48 h 0.16 q 1.024,0 1.344,-0.736 0.32,-0.768 0.32,-2.304 v -5.472 q 0,-0.864 -0.16,-1.568 -0.128,-0.736 -0.64,-1.152 -0.48,-0.448 -1.504,-0.448 -1.376,0 -2.432,0.864 -1.024,0.864 -1.728,2.176 v 5.6 q 0,1.76 0.544,2.4 0.576,0.64 1.504,0.64 h 0.256 q 0.48,0 0.48,0.48 v 0.96 q 0,0.48 -0.48,0.48 h -8.704 q -0.48,0 -0.48,-0.48 v -0.96 q 0,-0.48 0.48,-0.48 h 0.224 q 0.672,0 1.184,-0.64 0.512,-0.64 0.512,-2.4 v -5.472 q 0,-1.536 -0.416,-2.336 -0.384,-0.832 -1.888,-0.832 -0.8,0 -1.6,0.416 -0.8,0.384 -1.408,1.024 -0.608,0.608 -0.896,1.312 v 5.888 q 0,1.28 0.544,2.176 0.576,0.864 1.504,0.864 h 0.064 q 0.48,0 0.48,0.48 v 0.96 q 0,0.48 -0.48,0.48 h -8.992 q -0.48,0 -0.48,-0.48 v -0.96 q 0,-0.48 0.48,-0.48 h 0.064 q 1.184,0 1.76,-0.864 0.576,-0.896 0.576,-2.176 v -4.032 q 0,-0.864 -0.128,-1.664 -0.096,-0.8 -0.512,-1.344 -0.384,-0.576 -1.28,-0.672 -0.352,-0.032 -0.352,-0.416 v -1.088 q 0,-0.32 0.448,-0.416 2.304,-0.352 3.936,-1.088 1.664,-0.736 2.304,-1.184 0.16,-0.128 0.256,-0.128 h 0.032 q 0.064,0 0.064,0.064 0,0.064 -0.032,0.256 l -0.544,3.936 q 0.448,-0.736 1.184,-1.568 0.736,-0.864 1.824,-1.472 1.088,-0.64 2.528,-0.64 2.368,0 3.52,0.896 1.152,0.864 1.568,2.24 1.088,-1.408 2.528,-2.272 1.472,-0.864 3.36,-0.864 1.728,0 2.784,0.544 1.088,0.512 1.664,1.408 0.576,0.864 0.768,1.984 0.224,1.088 0.224,2.24 v 5.28 q 0,1.28 0.576,2.176 0.608,0.864 1.76,0.864 z m 20.51198,0 q 0.416,0 0.416,0.48 v 0.96 q 0,0.48 -0.48,0.48 h -7.84 q -0.48,0 -0.48,-0.48 v -0.992 q 0,-0.448 0.416,-0.448 h 0.48 q 0.32,0 0.576,-0.128 0.288,-0.128 0.288,-0.352 0,-0.224 -0.256,-0.48 l -4.224,-4.576 -0.672,0.608 v 1.888 q 0,1.248 0.096,1.92 0.128,0.64 0.48,0.896 0.384,0.224 1.152,0.224 0.48,0 0.48,0.48 v 0.96 q 0,0.48 -0.48,0.48 h -8.544 q -0.48,0 -0.48,-0.48 v -0.96 q 0,-0.48 0.48,-0.48 1.184,0 1.76,-0.864 0.576,-0.896 0.576,-2.176 v -12 q 0,-0.864 -0.128,-1.664 -0.096,-0.8 -0.512,-1.344 -0.384,-0.576 -1.28,-0.672 -0.352,-0.032 -0.352,-0.416 v -1.088 q 0,-0.192 0.096,-0.256 0.128,-0.096 0.352,-0.16 2.56,-0.832 3.968,-1.664 1.408,-0.832 2.048,-1.312 0.096,-0.064 0.16,-0.064 h 0.064 q 0.064,0 0.064,0.064 v 15.872 l 3.904,-3.552 q 0.256,-0.256 0.256,-0.448 0,-0.416 -0.64,-0.416 h -0.96 q -0.416,0 -0.416,-0.48 v -0.96 q 0,-0.48 0.48,-0.48 h 7.104 q 0.48,0 0.48,0.48 v 0.96 q 0,0.48 -0.416,0.48 h -0.384 q -0.928,0 -1.664,0.48 -0.704,0.48 -1.952,1.6 l -2.464,2.208 6.848,6.88 q 0.544,0.544 0.864,0.768 0.32,0.224 0.64,0.224 z m 15.93595,-4 q 0,1.152 0.352,2.08 0.352,0.896 1.536,1.056 0.384,0.032 0.384,0.416 v 1.056 q 0,0.448 -0.48,0.448 -1.568,0 -2.624,0.192 -1.024,0.16 -1.792,0.448 -0.736,0.256 -1.472,0.576 -0.128,0.064 -0.224,0.064 h -0.096 q -0.064,0 -0.064,-0.128 0,-0.128 0.064,-0.608 0.064,-0.512 0.128,-1.12 0.096,-0.64 0.16,-1.088 -0.16,0.416 -0.704,1.12 -0.512,0.704 -1.536,1.28 -0.992,0.544 -2.624,0.544 -1.088,0 -2.336,-0.448 -1.216,-0.448 -2.304,-1.44 -1.088,-0.992 -1.792,-2.592 -0.672,-1.632 -0.672,-3.968 0,-2.976 1.056,-4.8 1.088,-1.856 2.784,-2.72 1.728,-0.864 3.648,-0.864 1.568,0 2.88,0.48 1.312,0.48 2.304,1.376 0.832,-0.352 1.408,-0.64 0.608,-0.32 1.024,-0.64 0.16,-0.128 0.32,-0.256 0.192,-0.128 0.416,-0.256 0.096,-0.064 0.16,-0.064 h 0.032 q 0.064,0 0.064,0.064 z m -4.48,-5.024 q -0.096,-0.64 -0.48,-1.408 -0.352,-0.8 -1.088,-1.344 -0.736,-0.576 -1.984,-0.576 -1.536,0 -2.4,0.768 -0.864,0.736 -1.216,1.92 -0.32,1.184 -0.32,2.528 0,3.072 1.216,4.864 1.248,1.792 3.2,1.792 1.152,0 1.792,-0.48 0.672,-0.512 0.96,-1.024 0.288,-0.512 0.32,-0.608 z m 39.80795,9.024 q 0.48,0 0.48,0.48 v 0.96 q 0,0.48 -0.48,0.48 h -9.024 q -0.48,0 -0.48,-0.48 v -0.96 q 0,-0.48 0.48,-0.48 h 0.16 q 1.024,0 1.344,-0.736 0.32,-0.768 0.32,-2.304 v -5.472 q 0,-0.864 -0.16,-1.568 -0.128,-0.736 -0.64,-1.152 -0.48,-0.448 -1.504,-0.448 -1.376,0 -2.432,0.864 -1.024,0.864 -1.728,2.176 v 5.6 q 0,1.76 0.544,2.4 0.576,0.64 1.504,0.64 h 0.256 q 0.48,0 0.48,0.48 v 0.96 q 0,0.48 -0.48,0.48 h -8.704 q -0.48,0 -0.48,-0.48 v -0.96 q 0,-0.48 0.48,-0.48 h 0.224 q 0.672,0 1.184,-0.64 0.512,-0.64 0.512,-2.4 v -5.472 q 0,-1.536 -0.416,-2.336 -0.384,-0.832 -1.888,-0.832 -0.8,0 -1.6,0.416 -0.8,0.384 -1.408,1.024 -0.608,0.608 -0.896,1.312 v 5.888 q 0,1.28 0.544,2.176 0.576,0.864 1.504,0.864 h 0.064 q 0.48,0 0.48,0.48 v 0.96 q 0,0.48 -0.48,0.48 h -8.992 q -0.48,0 -0.48,-0.48 v -0.96 q 0,-0.48 0.48,-0.48 h 0.064 q 1.184,0 1.76,-0.864 0.576,-0.896 0.576,-2.176 v -4.032 q 0,-0.864 -0.128,-1.664 -0.096,-0.8 -0.512,-1.344 -0.384,-0.576 -1.28,-0.672 -0.352,-0.032 -0.352,-0.416 v -1.088 q 0,-0.32 0.448,-0.416 2.304,-0.352 3.936,-1.088 1.664,-0.736 2.304,-1.184 0.16,-0.128 0.256,-0.128 h 0.032 q 0.064,0 0.064,0.064 0,0.064 -0.032,0.256 l -0.544,3.936 q 0.448,-0.736 1.184,-1.568 0.736,-0.864 1.824,-1.472 1.088,-0.64 2.528,-0.64 2.368,0 3.52,0.896 1.152,0.864 1.568,2.24 1.088,-1.408 2.528,-2.272 1.472,-0.864 3.36,-0.864 1.728,0 2.784,0.544 1.088,0.512 1.664,1.408 0.576,0.864 0.768,1.984 0.224,1.088 0.224,2.24 v 5.28 q 0,1.28 0.576,2.176 0.608,0.864 1.76,0.864 z m 16.76793,-4 q 0,1.152 0.352,2.08 0.352,0.896 1.536,1.056 0.384,0.032 0.384,0.416 v 1.056 q 0,0.448 -0.48,0.448 -1.568,0 -2.624,0.192 -1.024,0.16 -1.792,0.448 -0.736,0.256 -1.472,0.576 -0.128,0.064 -0.224,0.064 h -0.064 q -0.096,0 -0.096,-0.096 0.064,-0.736 0.128,-1.44 0.096,-0.704 0.224,-1.408 -0.16,0.416 -0.704,1.12 -0.512,0.704 -1.536,1.28 -0.992,0.544 -2.624,0.544 -1.088,0 -2.336,-0.448 -1.216,-0.448 -2.304,-1.44 -1.088,-0.992 -1.792,-2.592 -0.672,-1.632 -0.672,-3.968 0,-2.976 1.056,-4.8 1.088,-1.856 2.784,-2.72 1.728,-0.864 3.648,-0.864 2.432,0 4.128,1.504 v -2.048 q 0,-0.864 -0.128,-1.664 -0.096,-0.8 -0.48,-1.344 -0.384,-0.576 -1.28,-0.672 -0.384,-0.032 -0.384,-0.416 v -1.088 q 0,-0.192 0.128,-0.256 0.128,-0.096 0.352,-0.16 2.528,-0.832 3.936,-1.664 1.44,-0.832 2.08,-1.312 0.096,-0.064 0.16,-0.064 h 0.032 q 0.064,0 0.064,0.064 z m -4.48,-4.448 q 0,-1.504 -0.992,-2.56 -0.96,-1.056 -2.56,-1.056 -1.536,0 -2.4,0.672 -0.864,0.672 -1.216,1.792 -0.32,1.12 -0.32,2.464 0,3.072 1.216,4.864 1.248,1.792 3.2,1.792 0.864,0 1.504,-0.416 0.64,-0.448 1.024,-1.088 0.416,-0.64 0.544,-1.216 z m 39.80796,8.448 q 0.48,0 0.48,0.48 v 0.96 q 0,0.48 -0.48,0.48 h -9.024 q -0.48,0 -0.48,-0.48 v -0.96 q 0,-0.48 0.48,-0.48 h 0.16 q 1.024,0 1.344,-0.736 0.32,-0.768 0.32,-2.304 v -5.472 q 0,-0.864 -0.16,-1.568 -0.128,-0.736 -0.64,-1.152 -0.48,-0.448 -1.504,-0.448 -1.376,0 -2.432,0.864 -1.024,0.864 -1.728,2.176 v 5.6 q 0,1.76 0.544,2.4 0.576,0.64 1.504,0.64 h 0.256 q 0.48,0 0.48,0.48 v 0.96 q 0,0.48 -0.48,0.48 h -8.704 q -0.48,0 -0.48,-0.48 v -0.96 q 0,-0.48 0.48,-0.48 h 0.224 q 0.672,0 1.184,-0.64 0.512,-0.64 0.512,-2.4 v -5.472 q 0,-1.536 -0.416,-2.336 -0.384,-0.832 -1.888,-0.832 -0.8,0 -1.6,0.416 -0.8,0.384 -1.408,1.024 -0.608,0.608 -0.896,1.312 v 5.888 q 0,1.28 0.544,2.176 0.576,0.864 1.504,0.864 h 0.064 q 0.48,0 0.48,0.48 v 0.96 q 0,0.48 -0.48,0.48 h -8.992 q -0.48,0 -0.48,-0.48 v -0.96 q 0,-0.48 0.48,-0.48 h 0.064 q 1.184,0 1.76,-0.864 0.576,-0.896 0.576,-2.176 v -4.032 q 0,-0.864 -0.128,-1.664 -0.096,-0.8 -0.512,-1.344 -0.384,-0.576 -1.28,-0.672 -0.352,-0.032 -0.352,-0.416 v -1.088 q 0,-0.32 0.448,-0.416 2.304,-0.352 3.936,-1.088 1.664,-0.736 2.304,-1.184 0.16,-0.128 0.256,-0.128 h 0.032 q 0.064,0 0.064,0.064 0,0.064 -0.032,0.256 l -0.544,3.936 q 0.448,-0.736 1.184,-1.568 0.736,-0.864 1.824,-1.472 1.088,-0.64 2.528,-0.64 2.368,0 3.52,0.896 1.152,0.864 1.568,2.24 1.088,-1.408 2.528,-2.272 1.472,-0.864 3.36,-0.864 1.728,0 2.784,0.544 1.088,0.512 1.664,1.408 0.576,0.864 0.768,1.984 0.224,1.088 0.224,2.24 v 5.28 q 0,1.28 0.576,2.176 0.608,0.864 1.76,0.864 z"
                id="text1"
                style="font-size:32px;font-family:'Young Serif';-inkscape-font-specification:'Young Serif, Normal';white-space:pre;fill:#0000ff"
                transform="matrix(0.26458333,0,0,0.26458333,68.983942,11.04244)"
                aria-label="amkamdm"/>
        <path
                style="display:inline;fill:#0000ff;fill-opacity:1;stroke-width:0.0506099"
                d="m 83.028887,81.472397 c -0.349153,-0.351534 -0.68724,-1.470713 -0.688715,-2.279869 -2.52e-4,-0.1549 -0.02692,-0.281635 -0.05918,-0.281635 -0.03227,0 -0.140708,0.115521 -0.240974,0.256711 -0.504644,0.710623 -1.669707,1.60051 -2.091803,1.597747 -0.770554,-0.0051 -0.514844,-1.491761 0.514081,-2.988901 l 0.300417,-0.437124 -1.028025,0.0072 c -1.587213,0.01104 -2.430084,-0.249679 -2.474639,-0.765449 -0.01803,-0.20878 0.01459,-0.267573 0.26418,-0.476052 0.377246,-0.315113 1.215926,-0.619889 2.078312,-0.755259 0.384959,-0.06043 0.699203,-0.1263 0.698321,-0.146382 -9.01e-4,-0.02009 -0.126076,-0.125977 -0.278206,-0.235317 -0.424556,-0.30514 -1.1842,-1.113384 -1.414063,-1.504533 -0.228636,-0.389059 -0.278605,-0.8404 -0.108312,-0.978317 0.418318,-0.338791 1.795451,0.115911 3.03281,1.001373 0.247334,0.176994 0.466895,0.321807 0.487912,0.321807 0.02102,0 0.02156,-0.260926 0.0012,-0.579835 -0.06184,-0.968532 0.160882,-2.077878 0.494941,-2.465298 0.180275,-0.209071 0.403791,-0.257681 0.633419,-0.137756 0.362878,0.189517 0.819906,1.319342 0.965573,2.387002 0.04481,0.328398 0.09888,0.596317 0.120165,0.595377 0.02129,-9.54e-4 0.145654,-0.155879 0.276375,-0.34431 0.568047,-0.818833 1.607428,-1.639973 2.077601,-1.641365 0.769425,-0.0023 0.550132,1.389015 -0.476165,3.020995 l -0.170763,0.271542 0.86349,0.04408 c 1.343059,0.06857 2.187289,0.29088 2.612083,0.687853 0.614879,0.574608 -0.313271,1.144466 -2.189985,1.344588 -0.392161,0.04182 -0.890629,0.05677 -1.107707,0.03322 l -0.394689,-0.04281 0.379598,0.528647 c 0.455038,0.633707 0.882749,1.500715 1.032537,2.093042 0.09612,0.380106 0.09763,0.462574 0.01249,0.681759 -0.08852,0.227872 -0.121552,0.251103 -0.383592,0.269746 -0.212874,0.01515 -0.376158,-0.02711 -0.633924,-0.164002 -0.397252,-0.210993 -1.178523,-0.893757 -1.4222,-1.242891 -0.09065,-0.12988 -0.183345,-0.23635 -0.205994,-0.236592 -0.02265,-1.91e-4 -0.06155,0.213475 -0.08646,0.474947 -0.05482,0.575575 -0.274953,1.443656 -0.451953,1.782225 -0.144314,0.276054 -0.431367,0.525579 -0.604614,0.525579 -0.06233,0 -0.212423,-0.09977 -0.333533,-0.221705 z m 0.496476,-2.602812 c 0.168869,-0.06327 0.383447,-0.531339 0.425402,-0.928017 0.02071,-0.195806 0.05313,-0.356012 0.07204,-0.356012 0.01891,0 0.181113,0.133932 0.360446,0.297626 0.405176,0.369844 0.734652,0.530028 0.971083,0.472121 0.158802,-0.03889 0.176933,-0.07481 0.176933,-0.350474 0,-0.227222 -0.0612,-0.413923 -0.235198,-0.717552 -0.129358,-0.22573 -0.282148,-0.448442 -0.339533,-0.494919 -0.173751,-0.140718 -0.119032,-0.200737 0.184268,-0.202117 0.812219,-0.0037 1.697042,-0.25435 1.797227,-0.509126 0.05527,-0.14057 -0.242479,-0.389687 -0.575021,-0.48109 -0.139996,-0.03848 -0.52192,-0.08906 -0.84872,-0.112409 -0.555617,-0.03969 -0.691496,-0.08862 -0.524984,-0.189045 0.03806,-0.02295 0.149699,-0.196178 0.248091,-0.384945 0.623291,-1.195799 0.02666,-1.510998 -1.003411,-0.530097 l -0.380542,0.362379 -0.04342,-0.30912 c -0.0481,-0.342425 -0.261461,-0.857445 -0.430934,-1.040189 -0.06038,-0.06511 -0.196108,-0.118388 -0.301605,-0.118388 -0.293958,0 -0.480389,0.406987 -0.491524,1.073015 -0.0048,0.283926 -0.01919,0.516491 -0.0321,0.516811 -0.01291,3.75e-4 -0.111587,-0.06065 -0.219284,-0.135487 -0.277398,-0.192754 -1.001328,-0.500851 -1.301168,-0.553759 -0.314144,-0.05544 -0.527227,0.0462 -0.527227,0.251479 0,0.196974 0.321747,0.629965 0.672522,0.905051 0.150777,0.118241 0.260601,0.236359 0.244055,0.262485 -0.01655,0.02613 -0.164154,0.06543 -0.328018,0.08735 -0.778933,0.104187 -1.406571,0.497506 -1.193565,0.747964 0.153733,0.180763 0.408946,0.243195 1.162464,0.284364 l 0.727223,0.03974 -0.228013,0.331463 c -0.316759,0.460477 -0.486921,0.985002 -0.388164,1.196517 0.15149,0.324458 0.639387,0.15362 1.275239,-0.446519 l 0.280034,-0.264307 0.04898,0.320359 c 0.05678,0.371354 0.198007,0.728743 0.354755,0.897766 0.116319,0.125431 0.212182,0.144296 0.391663,0.07708 z"
                id="path1"/>
    </g>
</svg>
