<?xml version="1.0" encoding="UTF-8" standalone="no"?>
<!-- Created with Inkscape (http://www.inkscape.org/) -->

<svg
        width="51.553444mm"
        height="6.8833981mm"
        viewBox="0 0 51.553444 6.8833981"
        version="1.1"
        id="svg1"
        inkscape:export-filename="logokak-4.svg"
        inkscape:export-xdpi="96"
        inkscape:export-ydpi="96"
        xmlns:inkscape="http://www.inkscape.org/namespaces/inkscape"
        xmlns:sodipodi="http://sodipodi.sourceforge.net/DTD/sodipodi-0.dtd"
        xmlns="http://www.w3.org/2000/svg"
        xmlns:svg="http://www.w3.org/2000/svg">
    <sodipodi:namedview
            id="namedview1"
            pagecolor="#ffffff"
            bordercolor="#000000"
            borderopacity="0.25"
            inkscape:showpageshadow="2"
            inkscape:pageopacity="0.0"
            inkscape:pagecheckerboard="0"
            inkscape:deskcolor="#d1d1d1"
            inkscape:document-units="mm"/>
    <defs
            id="defs1"/>
    <g
            inkscape:label="Layer 1"
            inkscape:groupmode="layer"
            id="layer1"
            transform="translate(-61.91081,-74.07163)">
        <path
                style="font-size:32px;font-family:'Young Serif';-inkscape-font-specification:'Young Serif, Normal';white-space:pre;fill:#1131ff"
                d="m 226.056,279.8264 q 0,1.152 0.352,2.08 0.352,0.896 1.536,1.056 0.384,0.032 0.384,0.416 v 1.056 q 0,0.448 -0.48,0.448 -1.568,0 -2.624,0.192 -1.024,0.16 -1.792,0.448 -0.736,0.256 -1.472,0.576 -0.128,0.064 -0.224,0.064 h -0.096 q -0.064,0 -0.064,-0.128 0,-0.128 0.064,-0.608 0.064,-0.512 0.128,-1.12 0.096,-0.64 0.16,-1.088 -0.16,0.416 -0.704,1.12 -0.512,0.704 -1.536,1.28 -0.992,0.544 -2.624,0.544 -1.088,0 -2.336,-0.448 -1.216,-0.448 -2.304,-1.44 -1.088,-0.992 -1.792,-2.592 -0.672,-1.632 -0.672,-3.968 0,-2.976 1.056,-4.8 1.088,-1.856 2.784,-2.72 1.728,-0.864 3.648,-0.864 1.568,0 2.88,0.48 1.312,0.48 2.304,1.376 0.832,-0.352 1.408,-0.64 0.608,-0.32 1.024,-0.64 0.16,-0.128 0.32,-0.256 0.192,-0.128 0.416,-0.256 0.096,-0.064 0.16,-0.064 h 0.032 q 0.064,0 0.064,0.064 z m -4.48,-5.024 q -0.096,-0.64 -0.48,-1.408 -0.352,-0.8 -1.088,-1.344 -0.736,-0.576 -1.984,-0.576 -1.536,0 -2.4,0.768 -0.864,0.736 -1.216,1.92 -0.32,1.184 -0.32,2.528 0,3.072 1.216,4.864 1.248,1.792 3.2,1.792 1.152,0 1.792,-0.48 0.672,-0.512 0.96,-1.024 0.288,-0.512 0.32,-0.608 z m 39.80796,9.024 q 0.48,0 0.48,0.48 v 0.96 q 0,0.48 -0.48,0.48 h -9.024 q -0.48,0 -0.48,-0.48 v -0.96 q 0,-0.48 0.48,-0.48 h 0.16 q 1.024,0 1.344,-0.736 0.32,-0.768 0.32,-2.304 v -5.472 q 0,-0.864 -0.16,-1.568 -0.128,-0.736 -0.64,-1.152 -0.48,-0.448 -1.504,-0.448 -1.376,0 -2.432,0.864 -1.024,0.864 -1.728,2.176 v 5.6 q 0,1.76 0.544,2.4 0.576,0.64 1.504,0.64 h 0.256 q 0.48,0 0.48,0.48 v 0.96 q 0,0.48 -0.48,0.48 h -8.704 q -0.48,0 -0.48,-0.48 v -0.96 q 0,-0.48 0.48,-0.48 h 0.224 q 0.672,0 1.184,-0.64 0.512,-0.64 0.512,-2.4 v -5.472 q 0,-1.536 -0.416,-2.336 -0.384,-0.832 -1.888,-0.832 -0.8,0 -1.6,0.416 -0.8,0.384 -1.408,1.024 -0.608,0.608 -0.896,1.312 v 5.888 q 0,1.28 0.544,2.176 0.576,0.864 1.504,0.864 h 0.064 q 0.48,0 0.48,0.48 v 0.96 q 0,0.48 -0.48,0.48 h -8.992 q -0.48,0 -0.48,-0.48 v -0.96 q 0,-0.48 0.48,-0.48 h 0.064 q 1.184,0 1.76,-0.864 0.576,-0.896 0.576,-2.176 v -4.032 q 0,-0.864 -0.128,-1.664 -0.096,-0.8 -0.512,-1.344 -0.384,-0.576 -1.28,-0.672 -0.352,-0.032 -0.352,-0.416 v -1.088 q 0,-0.32 0.448,-0.416 2.304,-0.352 3.936,-1.088 1.664,-0.736 2.304,-1.184 0.16,-0.128 0.256,-0.128 h 0.032 q 0.064,0 0.064,0.064 0,0.064 -0.032,0.256 l -0.544,3.936 q 0.448,-0.736 1.184,-1.568 0.736,-0.864 1.824,-1.472 1.088,-0.64 2.528,-0.64 2.368,0 3.52,0.896 1.152,0.864 1.568,2.24 1.088,-1.408 2.528,-2.272 1.472,-0.864 3.36,-0.864 1.728,0 2.784,0.544 1.088,0.512 1.664,1.408 0.576,0.864 0.768,1.984 0.224,1.088 0.224,2.24 v 5.28 q 0,1.28 0.576,2.176 0.608,0.864 1.76,0.864 z m 20.51197,0 q 0.416,0 0.416,0.48 v 0.96 q 0,0.48 -0.48,0.48 h -7.84 q -0.48,0 -0.48,-0.48 v -0.992 q 0,-0.448 0.416,-0.448 h 0.48 q 0.32,0 0.576,-0.128 0.288,-0.128 0.288,-0.352 0,-0.224 -0.256,-0.48 l -4.224,-4.576 -0.672,0.608 v 1.888 q 0,1.248 0.096,1.92 0.128,0.64 0.48,0.896 0.384,0.224 1.152,0.224 0.48,0 0.48,0.48 v 0.96 q 0,0.48 -0.48,0.48 h -8.544 q -0.48,0 -0.48,-0.48 v -0.96 q 0,-0.48 0.48,-0.48 1.184,0 1.76,-0.864 0.576,-0.896 0.576,-2.176 v -12 q 0,-0.864 -0.128,-1.664 -0.096,-0.8 -0.512,-1.344 -0.384,-0.576 -1.28,-0.672 -0.352,-0.032 -0.352,-0.416 v -1.088 q 0,-0.192 0.096,-0.256 0.128,-0.096 0.352,-0.16 2.56,-0.832 3.968,-1.664 1.408,-0.832 2.048,-1.312 0.096,-0.064 0.16,-0.064 h 0.064 q 0.064,0 0.064,0.064 v 15.872 l 3.904,-3.552 q 0.256,-0.256 0.256,-0.448 0,-0.416 -0.64,-0.416 h -0.96 q -0.416,0 -0.416,-0.48 v -0.96 q 0,-0.48 0.48,-0.48 h 7.104 q 0.48,0 0.48,0.48 v 0.96 q 0,0.48 -0.416,0.48 h -0.384 q -0.928,0 -1.664,0.48 -0.704,0.48 -1.952,1.6 l -2.464,2.208 6.848,6.88 q 0.544,0.544 0.864,0.768 0.32,0.224 0.64,0.224 z m 15.93595,-4 q 0,1.152 0.352,2.08 0.352,0.896 1.536,1.056 0.384,0.032 0.384,0.416 v 1.056 q 0,0.448 -0.48,0.448 -1.568,0 -2.624,0.192 -1.024,0.16 -1.792,0.448 -0.736,0.256 -1.472,0.576 -0.128,0.064 -0.224,0.064 h -0.096 q -0.064,0 -0.064,-0.128 0,-0.128 0.064,-0.608 0.064,-0.512 0.128,-1.12 0.096,-0.64 0.16,-1.088 -0.16,0.416 -0.704,1.12 -0.512,0.704 -1.536,1.28 -0.992,0.544 -2.624,0.544 -1.088,0 -2.336,-0.448 -1.216,-0.448 -2.304,-1.44 -1.088,-0.992 -1.792,-2.592 -0.672,-1.632 -0.672,-3.968 0,-2.976 1.056,-4.8 1.088,-1.856 2.784,-2.72 1.728,-0.864 3.648,-0.864 1.568,0 2.88,0.48 1.312,0.48 2.304,1.376 0.832,-0.352 1.408,-0.64 0.608,-0.32 1.024,-0.64 0.16,-0.128 0.32,-0.256 0.192,-0.128 0.416,-0.256 0.096,-0.064 0.16,-0.064 h 0.032 q 0.064,0 0.064,0.064 z m -4.48,-5.024 q -0.096,-0.64 -0.48,-1.408 -0.352,-0.8 -1.088,-1.344 -0.736,-0.576 -1.984,-0.576 -1.536,0 -2.4,0.768 -0.864,0.736 -1.216,1.92 -0.32,1.184 -0.32,2.528 0,3.072 1.216,4.864 1.248,1.792 3.2,1.792 1.152,0 1.792,-0.48 0.672,-0.512 0.96,-1.024 0.288,-0.512 0.32,-0.608 z m 39.80795,9.024 q 0.48,0 0.48,0.48 v 0.96 q 0,0.48 -0.48,0.48 h -9.024 q -0.48,0 -0.48,-0.48 v -0.96 q 0,-0.48 0.48,-0.48 h 0.16 q 1.024,0 1.344,-0.736 0.32,-0.768 0.32,-2.304 v -5.472 q 0,-0.864 -0.16,-1.568 -0.128,-0.736 -0.64,-1.152 -0.48,-0.448 -1.504,-0.448 -1.376,0 -2.432,0.864 -1.024,0.864 -1.728,2.176 v 5.6 q 0,1.76 0.544,2.4 0.576,0.64 1.504,0.64 h 0.256 q 0.48,0 0.48,0.48 v 0.96 q 0,0.48 -0.48,0.48 h -8.704 q -0.48,0 -0.48,-0.48 v -0.96 q 0,-0.48 0.48,-0.48 h 0.224 q 0.672,0 1.184,-0.64 0.512,-0.64 0.512,-2.4 v -5.472 q 0,-1.536 -0.416,-2.336 -0.384,-0.832 -1.888,-0.832 -0.8,0 -1.6,0.416 -0.8,0.384 -1.408,1.024 -0.608,0.608 -0.896,1.312 v 5.888 q 0,1.28 0.544,2.176 0.576,0.864 1.504,0.864 h 0.064 q 0.48,0 0.48,0.48 v 0.96 q 0,0.48 -0.48,0.48 h -8.992 q -0.48,0 -0.48,-0.48 v -0.96 q 0,-0.48 0.48,-0.48 h 0.064 q 1.184,0 1.76,-0.864 0.576,-0.896 0.576,-2.176 v -4.032 q 0,-0.864 -0.128,-1.664 -0.096,-0.8 -0.512,-1.344 -0.384,-0.576 -1.28,-0.672 -0.352,-0.032 -0.352,-0.416 v -1.088 q 0,-0.32 0.448,-0.416 2.304,-0.352 3.936,-1.088 1.664,-0.736 2.304,-1.184 0.16,-0.128 0.256,-0.128 h 0.032 q 0.064,0 0.064,0.064 0,0.064 -0.032,0.256 l -0.544,3.936 q 0.448,-0.736 1.184,-1.568 0.736,-0.864 1.824,-1.472 1.088,-0.64 2.528,-0.64 2.368,0 3.52,0.896 1.152,0.864 1.568,2.24 1.088,-1.408 2.528,-2.272 1.472,-0.864 3.36,-0.864 1.728,0 2.784,0.544 1.088,0.512 1.664,1.408 0.576,0.864 0.768,1.984 0.224,1.088 0.224,2.24 v 5.28 q 0,1.28 0.576,2.176 0.608,0.864 1.76,0.864 z m 16.76794,-4 q 0,1.152 0.352,2.08 0.352,0.896 1.536,1.056 0.384,0.032 0.384,0.416 v 1.056 q 0,0.448 -0.48,0.448 -1.568,0 -2.624,0.192 -1.024,0.16 -1.792,0.448 -0.736,0.256 -1.472,0.576 -0.128,0.064 -0.224,0.064 h -0.064 q -0.096,0 -0.096,-0.096 0.064,-0.736 0.128,-1.44 0.096,-0.704 0.224,-1.408 -0.16,0.416 -0.704,1.12 -0.512,0.704 -1.536,1.28 -0.992,0.544 -2.624,0.544 -1.088,0 -2.336,-0.448 -1.216,-0.448 -2.304,-1.44 -1.088,-0.992 -1.792,-2.592 -0.672,-1.632 -0.672,-3.968 0,-2.976 1.056,-4.8 1.088,-1.856 2.784,-2.72 1.728,-0.864 3.648,-0.864 2.432,0 4.128,1.504 v -2.048 q 0,-0.864 -0.128,-1.664 -0.096,-0.8 -0.48,-1.344 -0.384,-0.576 -1.28,-0.672 -0.384,-0.032 -0.384,-0.416 v -1.088 q 0,-0.192 0.128,-0.256 0.128,-0.096 0.352,-0.16 2.528,-0.832 3.936,-1.664 1.44,-0.832 2.08,-1.312 0.096,-0.064 0.16,-0.064 h 0.032 q 0.064,0 0.064,0.064 z m -4.48,-4.448 q 0,-1.504 -0.992,-2.56 -0.96,-1.056 -2.56,-1.056 -1.536,0 -2.4,0.672 -0.864,0.672 -1.216,1.792 -0.32,1.12 -0.32,2.464 0,3.072 1.216,4.864 1.248,1.792 3.2,1.792 0.864,0 1.504,-0.416 0.64,-0.448 1.024,-1.088 0.416,-0.64 0.544,-1.216 z m 23.55196,4.448 q 0,1.152 0.352,2.08 0.352,0.896 1.536,1.056 0.384,0.032 0.384,0.416 v 1.056 q 0,0.448 -0.48,0.448 -1.568,0 -2.624,0.192 -1.024,0.16 -1.792,0.448 -0.736,0.256 -1.472,0.576 -0.128,0.064 -0.224,0.064 h -0.096 q -0.064,0 -0.064,-0.128 0,-0.128 0.064,-0.608 0.064,-0.512 0.128,-1.12 0.096,-0.64 0.16,-1.088 -0.16,0.416 -0.704,1.12 -0.512,0.704 -1.536,1.28 -0.992,0.544 -2.624,0.544 -1.088,0 -2.336,-0.448 -1.216,-0.448 -2.304,-1.44 -1.088,-0.992 -1.792,-2.592 -0.672,-1.632 -0.672,-3.968 0,-2.976 1.056,-4.8 1.088,-1.856 2.784,-2.72 1.728,-0.864 3.648,-0.864 1.568,0 2.88,0.48 1.312,0.48 2.304,1.376 0.832,-0.352 1.408,-0.64 0.608,-0.32 1.024,-0.64 0.16,-0.128 0.32,-0.256 0.192,-0.128 0.416,-0.256 0.096,-0.064 0.16,-0.064 h 0.032 q 0.064,0 0.064,0.064 z m -4.48,-5.024 q -0.096,-0.64 -0.48,-1.408 -0.352,-0.8 -1.088,-1.344 -0.736,-0.576 -1.984,-0.576 -1.536,0 -2.4,0.768 -0.864,0.736 -1.216,1.92 -0.32,1.184 -0.32,2.528 0,3.072 1.216,4.864 1.248,1.792 3.2,1.792 1.152,0 1.792,-0.48 0.672,-0.512 0.96,-1.024 0.288,-0.512 0.32,-0.608 z m 39.80795,9.024 q 0.48,0 0.48,0.48 v 0.96 q 0,0.48 -0.48,0.48 h -9.024 q -0.48,0 -0.48,-0.48 v -0.96 q 0,-0.48 0.48,-0.48 h 0.16 q 1.024,0 1.344,-0.736 0.32,-0.768 0.32,-2.304 v -5.472 q 0,-0.864 -0.16,-1.568 -0.128,-0.736 -0.64,-1.152 -0.48,-0.448 -1.504,-0.448 -1.376,0 -2.432,0.864 -1.024,0.864 -1.728,2.176 v 5.6 q 0,1.76 0.544,2.4 0.576,0.64 1.504,0.64 h 0.256 q 0.48,0 0.48,0.48 v 0.96 q 0,0.48 -0.48,0.48 h -8.704 q -0.48,0 -0.48,-0.48 v -0.96 q 0,-0.48 0.48,-0.48 h 0.224 q 0.672,0 1.184,-0.64 0.512,-0.64 0.512,-2.4 v -5.472 q 0,-1.536 -0.416,-2.336 -0.384,-0.832 -1.888,-0.832 -0.8,0 -1.6,0.416 -0.8,0.384 -1.408,1.024 -0.608,0.608 -0.896,1.312 v 5.888 q 0,1.28 0.544,2.176 0.576,0.864 1.504,0.864 h 0.064 q 0.48,0 0.48,0.48 v 0.96 q 0,0.48 -0.48,0.48 h -8.992 q -0.48,0 -0.48,-0.48 v -0.96 q 0,-0.48 0.48,-0.48 h 0.064 q 1.184,0 1.76,-0.864 0.576,-0.896 0.576,-2.176 v -4.032 q 0,-0.864 -0.128,-1.664 -0.096,-0.8 -0.512,-1.344 -0.384,-0.576 -1.28,-0.672 -0.352,-0.032 -0.352,-0.416 v -1.088 q 0,-0.32 0.448,-0.416 2.304,-0.352 3.936,-1.088 1.664,-0.736 2.304,-1.184 0.16,-0.128 0.256,-0.128 h 0.032 q 0.064,0 0.064,0.064 0,0.064 -0.032,0.256 l -0.544,3.936 q 0.448,-0.736 1.184,-1.568 0.736,-0.864 1.824,-1.472 1.088,-0.64 2.528,-0.64 2.368,0 3.52,0.896 1.152,0.864 1.568,2.24 1.088,-1.408 2.528,-2.272 1.472,-0.864 3.36,-0.864 1.728,0 2.784,0.544 1.088,0.512 1.664,1.408 0.576,0.864 0.768,1.984 0.224,1.088 0.224,2.24 v 5.28 q 0,1.28 0.576,2.176 0.608,0.864 1.76,0.864 z"
                id="text1"
                transform="matrix(0.26458333,0,0,0.26458333,6.3588927,5.2412339)"
                aria-label="amkamdam"/>
        <rect
                style="display:inline;opacity:0;fill:#1131ff;fill-opacity:1;stroke-width:0.311431"
                id="rect2"
                width="89.810341"
                height="30.310957"
                x="43.28994"
                y="62.06345"
                sodipodi:insensitive="true"/>
    </g>
</svg>
